# xmcd
#
# Track frame offsets:
#	150
#	23355
#	37027
#	57672
#	81675
#	100637
#	125425
#	143487
#	174347
#	198997
#	224337
#
# Disc length: 3078 seconds
#
# Revision: 1
# Processed by: cddbd v1.5.1PL0 Copyright (c) Steve Scherf et al.
# Submitted via: CDex 1.50Beta5
#
DISCID=950c040b
DTITLE=福山芳樹 - 叫ぶ男の肖像
DYEAR=1900
DGENRE=Rock
TTITLE0=この空の下に君がいるから
TTITLE1=Nightingale
TTITLE2=花ざかりの街
TTITLE3=JULIA
TTITLE4=八月六日
TTITLE5=夏色の夜
TTITLE6=真白にかわれ
TTITLE7=MAD MACHINE
TTITLE8=冬
TTITLE9=季節の跡
TTITLE10=誰かが君を待っている
EXTD=
EXTT0=
EXTT1=
EXTT2=
EXTT3=
EXTT4=
EXTT5=
EXTT6=
EXTT7=
EXTT8=
EXTT9=
EXTT10=
PLAYORDER=
